<svg width="1920" height="1135" viewBox="0 0 1920 1135" fill="none" xmlns="http://www.w3.org/2000/svg">
<path fill-rule="evenodd" clip-rule="evenodd" d="M1859.86 126.296C1800.37 72.5886 1747.76 25.0944 1453.58 88.0026C1310.66 118.565 1271.43 77.9538 1238.18 43.53C1206.61 10.8542 1180.43 -16.2493 1076.07 28.3776C952.332 81.2897 893.27 57.4772 829.75 31.8659C783.258 13.1218 734.379 -6.58526 656.004 2.12177C574.883 11.1354 526.109 42.1999 480.398 71.3112C421.609 108.753 367.887 142.966 256.941 122.891C213.684 115.065 175.152 107.721 140.695 101.153C83.6016 90.2702 37.6914 81.5183 0 76.239V1134.33H1920V172.383C1895.23 158.225 1877.25 141.995 1859.86 126.296Z" fill="white"/>
</svg>
