<svg width="1929" height="1372" viewBox="0 0 1929 1372" fill="none" xmlns="http://www.w3.org/2000/svg">
<rect x="1.4375" width="1926.25" height="740.089" fill="url(#paint0_linear_2071_714)"/>
<path fill-rule="evenodd" clip-rule="evenodd" d="M1928 732.401C1894.37 729.562 1848.54 722.853 1783.92 711.16C1729.13 701.249 1692.31 687.09 1658.53 674.098C1570.68 640.32 1503.36 614.432 1194.28 691.6C1085.93 718.652 1051 702.518 1019.09 687.779C987.422 673.149 958.724 659.892 864.152 691.6C755.549 728.013 726.352 714.249 691.679 697.902C655.799 680.986 614.053 661.305 472.382 691.6C178.196 754.509 125.586 707.014 66.0955 653.307C47.5667 636.579 28.3704 619.249 1 604.465V1272.11C39.4355 1277.32 86.5698 1286.3 145.702 1297.57C180.157 1304.14 218.687 1311.48 261.942 1319.31C372.887 1339.38 426.606 1305.17 485.395 1267.73C531.106 1238.62 579.881 1207.55 661.005 1198.54C739.38 1189.83 788.259 1209.54 834.75 1228.28C898.271 1253.9 957.333 1277.71 1081.07 1224.79C1185.43 1180.17 1211.61 1207.27 1243.17 1239.95C1276.43 1274.37 1315.66 1314.98 1458.58 1284.42C1752.76 1221.51 1805.37 1269.01 1864.86 1322.71C1882.95 1339.04 1901.67 1355.94 1928 1370.49V732.401Z" fill="#0059FF"/>
<path d="M1928 732.401H1928.5V731.941L1928.04 731.903L1928 732.401ZM1783.92 711.16L1783.83 711.652L1783.83 711.652L1783.92 711.16ZM1658.53 674.098L1658.35 674.564L1658.35 674.564L1658.53 674.098ZM1194.28 691.6L1194.4 692.085L1194.4 692.085L1194.28 691.6ZM1019.09 687.779L1018.88 688.233L1018.88 688.233L1019.09 687.779ZM864.152 691.6L864.311 692.074L864.311 692.074L864.152 691.6ZM691.679 697.902L691.466 698.354L691.466 698.354L691.679 697.902ZM472.382 691.6L472.486 692.089L472.486 692.089L472.382 691.6ZM66.0955 653.307L65.7604 653.678L65.7604 653.678L66.0955 653.307ZM1 604.465L1.23763 604.025L0.5 603.626V604.465H1ZM1 1272.11H0.5V1272.54L0.932838 1272.6L1 1272.11ZM145.702 1297.57L145.795 1297.08L145.795 1297.08L145.702 1297.57ZM261.942 1319.31L262.031 1318.82L262.031 1318.82L261.942 1319.31ZM485.395 1267.73L485.126 1267.31L485.126 1267.31L485.395 1267.73ZM661.005 1198.54L660.95 1198.04L660.95 1198.04L661.005 1198.54ZM834.75 1228.28L834.563 1228.75L834.563 1228.75L834.75 1228.28ZM1081.07 1224.79L1081.27 1225.25L1081.27 1225.25L1081.07 1224.79ZM1243.17 1239.95L1243.53 1239.6L1243.53 1239.6L1243.17 1239.95ZM1458.58 1284.42L1458.68 1284.91L1458.68 1284.91L1458.58 1284.42ZM1864.86 1322.71L1865.2 1322.34L1865.2 1322.34L1864.86 1322.71ZM1928 1370.49L1927.76 1370.92L1928.5 1371.33V1370.49H1928ZM1928.04 731.903C1894.43 729.066 1848.62 722.36 1784 710.668L1783.83 711.652C1848.45 723.345 1894.3 730.059 1927.96 732.899L1928.04 731.903ZM1784 710.668C1729.27 700.765 1692.49 686.621 1658.71 673.631L1658.35 674.564C1692.14 687.558 1729 701.732 1783.83 711.652L1784 710.668ZM1658.71 673.631C1614.77 656.737 1575.91 641.794 1509.38 640.744C1442.86 639.695 1348.71 652.528 1194.16 691.115L1194.4 692.085C1348.93 653.505 1442.98 640.697 1509.36 641.744C1575.72 642.791 1614.44 657.68 1658.35 674.564L1658.71 673.631ZM1194.16 691.115C1140.02 704.633 1104.26 707.351 1078.07 704.864C1051.89 702.378 1035.25 694.691 1019.3 687.325L1018.88 688.233C1034.85 695.606 1051.62 703.356 1077.97 705.859C1104.32 708.361 1140.2 705.619 1194.4 692.085L1194.16 691.115ZM1019.3 687.325C1003.46 680.007 988.295 672.998 965.236 671.813C942.192 670.629 911.307 675.262 863.993 691.126L864.311 692.074C911.568 676.23 942.318 671.637 965.185 672.812C988.036 673.986 1003.05 680.92 1018.88 688.233L1019.3 687.325ZM863.993 691.126C809.714 709.325 775.331 714.966 750.21 714.037C725.111 713.108 709.222 705.62 691.892 697.45L691.466 698.354C708.809 706.531 724.856 714.099 750.173 715.036C775.47 715.972 809.986 710.289 864.311 692.074L863.993 691.126ZM691.892 697.45C673.939 688.986 654.469 679.806 621.752 676.55C589.05 673.295 543.14 675.958 472.277 691.111L472.486 692.089C543.295 676.948 589.093 674.304 621.652 677.545C654.195 680.784 673.539 689.903 691.466 698.354L691.892 697.45ZM472.277 691.111C325.201 722.562 238.582 726.398 181.32 715.693C124.101 704.996 96.1626 679.777 66.4305 652.936L65.7604 653.678C95.5188 680.543 123.631 705.926 181.136 716.676C238.598 727.418 325.376 723.547 472.486 692.089L472.277 691.111ZM66.4305 652.936C47.9027 636.209 28.6668 618.841 1.23763 604.025L0.76237 604.905C28.0741 619.658 47.2306 636.95 65.7604 653.678L66.4305 652.936ZM0.5 604.465V1272.11H1.5V604.465H0.5ZM0.932838 1272.6C39.352 1277.81 86.4712 1286.79 145.608 1298.06L145.795 1297.08C86.6684 1285.81 39.5189 1276.82 1.06716 1271.61L0.932838 1272.6ZM145.608 1298.06C180.064 1304.63 218.595 1311.97 261.853 1319.8L262.031 1318.82C218.778 1310.99 180.251 1303.65 145.795 1297.08L145.608 1298.06ZM261.853 1319.8C317.394 1329.85 358.642 1326.32 393.375 1315.56C428.095 1304.82 456.276 1286.87 485.663 1268.15L485.126 1267.31C455.725 1286.03 427.652 1303.91 393.079 1314.61C358.519 1325.31 317.435 1328.84 262.031 1318.82L261.853 1319.8ZM485.663 1268.15C531.365 1239.05 580.058 1208.04 661.06 1199.04L660.95 1198.04C579.704 1207.07 530.846 1238.19 485.126 1267.31L485.663 1268.15ZM661.06 1199.04C739.306 1190.34 788.088 1210.01 834.563 1228.75L834.937 1227.82C788.43 1209.07 739.454 1189.32 660.95 1198.04L661.06 1199.04ZM834.563 1228.75C866.318 1241.55 897.033 1253.94 935.296 1256.49C973.566 1259.03 1019.35 1251.73 1081.27 1225.25L1080.87 1224.33C1019.06 1250.77 973.437 1258.02 935.362 1255.49C897.279 1252.95 866.703 1240.63 834.937 1227.82L834.563 1228.75ZM1081.27 1225.25C1133.42 1202.95 1165.93 1198.62 1189.31 1203.87C1212.68 1209.11 1227.02 1223.94 1242.81 1240.29L1243.53 1239.6C1227.76 1223.27 1213.23 1208.21 1189.53 1202.89C1165.84 1197.58 1133.09 1202.01 1080.87 1224.33L1081.27 1225.25ZM1242.81 1240.29C1259.44 1257.51 1277.64 1276.35 1309.59 1287.03C1341.54 1297.7 1387.17 1300.2 1458.68 1284.91L1458.47 1283.93C1387.06 1299.2 1341.62 1296.68 1309.91 1286.08C1278.21 1275.49 1260.16 1256.81 1243.53 1239.6L1242.81 1240.29ZM1458.68 1284.91C1605.76 1253.46 1692.38 1249.62 1749.64 1260.33C1806.86 1271.02 1834.8 1296.24 1864.53 1323.08L1865.2 1322.34C1835.44 1295.48 1807.33 1270.1 1749.82 1259.34C1692.36 1248.6 1605.58 1252.47 1458.47 1283.93L1458.68 1284.91ZM1864.53 1323.08C1882.61 1339.41 1901.37 1356.35 1927.76 1370.92L1928.24 1370.05C1901.96 1355.53 1883.28 1338.67 1865.2 1322.34L1864.53 1323.08ZM1928.5 1370.49V732.401H1927.5V1370.49H1928.5Z" fill="#0059FF"/>
<defs>
<linearGradient id="paint0_linear_2071_714" x1="964.562" y1="0" x2="964.562" y2="740.089" gradientUnits="userSpaceOnUse">
<stop stop-color="#0053ED" stop-opacity="0"/>
<stop offset="1" stop-color="#0053ED"/>
</linearGradient>
</defs>
</svg>
